<?xml version="1.0" encoding="utf-8"?>
<!-- Generator: Adobe Illustrator 28.1.0, SVG Export Plug-In . SVG Version: 6.00 Build 0)  -->
<svg version="1.1" id="Pokéball" xmlns="http://www.w3.org/2000/svg" xmlns:xlink="http://www.w3.org/1999/xlink" x="0px" y="0px"
	 viewBox="0 0 523.3 527.2" style="enable-background:new 0 0 523.3 527.2;" xml:space="preserve">
<style type="text/css">
	.st0{fill:#FFFFFF;}
	.st1{fill:#DFDFDF;}
	.st2{fill:#FF1C1C;}
	.st3{fill:#DF1818;}
</style>
<g id="Pokéball_1_">
	<g id="Colours">
		<path id="Down" class="st0" d="M261.6,347.5c-40.4,0-74.1-28.6-82.1-66.6H45.1c9.5,110.5,102.2,197.2,215.1,197.2
			s205.7-86.7,215.1-197.2H343.7C335.7,319,302,347.5,261.6,347.5z"/>
		<path id="Shadow_Down" class="st1" d="M309.6,472.5c89.6-21,157.7-97.7,165.7-191.6h-53C417,366.1,372.3,438.3,309.6,472.5z"/>
		<path id="Center" class="st0" d="M311.1,263.6L311.1,263.6C311,263.6,311,263.6,311.1,263.6c-0.1-6.1-1.2-11.9-3.2-17.3
			c-7-18.8-25.1-32.1-46.3-32.1s-39.3,13.4-46.3,32.1c-2,5.4-3.1,11.2-3.1,17.3l0,0h0.1l0,0c0,6.1,1.1,11.9,3.1,17.3
			c7,18.8,25.1,32.1,46.3,32.1s39.3-13.4,46.3-32.1C310,275.6,311.1,269.7,311.1,263.6L311.1,263.6z"/>
		<path id="Up" class="st2" d="M261.7,179.8c40.4,0,74.1,28.6,82.1,66.6h134.4C468.7,135.8,376,49.1,263,49.1S57.4,135.8,47.9,246.3
			h131.7C187.6,208.3,221.3,179.8,261.7,179.8z"/>
		<path id="Shadow_Up" class="st3" d="M422.3,246.3h55.8C469.9,150.8,399.5,73,307.6,53.7C371.4,87.4,416.9,160.3,422.3,246.3z"/>
	</g>
	<path id="Line" d="M263,49.1c113,0,205.7,86.7,215.1,197.2H343.7c-8-38-41.7-66.6-82.1-66.6s-74.1,28.6-82.1,66.6H47.9
		C57.4,135.8,150.1,49.1,263,49.1z M307.9,246.3c2,5.4,3.1,11.2,3.1,17.3l0,0h0.1l0,0c0,6.1-1.1,11.9-3.1,17.3
		c-7,18.8-25.1,32.1-46.3,32.1c-21.2,0-39.3-13.4-46.3-32.1c-2-5.4-3.1-11.2-3.1-17.3l0,0h-0.1l0,0c0-6.1,1.1-11.9,3.1-17.3
		c7-18.8,25.1-32.1,46.3-32.1S300.9,227.6,307.9,246.3z M260.2,478.2c-113,0-205.7-86.7-215.1-197.2h134.4c8,38,41.7,66.6,82.1,66.6
		s74.1-28.6,82.1-66.6h131.7C465.9,391.4,373.2,478.2,260.2,478.2z M261.6,7.9C120.4,7.9,5.9,122.4,5.9,263.6
		s114.5,255.7,255.7,255.7s255.8-114.4,255.8-255.7S402.9,7.9,261.6,7.9z"/>
</g>
</svg>
